<mxfile host="app.diagrams.net" modified="2023-11-06T23:45:22.973Z" agent="Mozilla/5.0 (Windows NT 10.0; Win64; x64) AppleWebKit/537.36 (KHTML, like Gecko) Chrome/119.0.0.0 Safari/537.36 Edg/119.0.0.0" etag="U49-6KPKbw7VETvJ0Qt4" version="22.0.8" type="github" pages="3">
  <diagram name="Página-1" id="BHRMvDymlLSinEgOvmte">
    <mxGraphModel dx="1042" dy="535" grid="1" gridSize="10" guides="1" tooltips="1" connect="1" arrows="1" fold="1" page="1" pageScale="1" pageWidth="827" pageHeight="1169" math="0" shadow="0">
      <root>
        <mxCell id="0" />
        <mxCell id="1" parent="0" />
        <mxCell id="T4OwEdS0RpMycMWgRKL4-2" value="" style="ellipse;shape=doubleEllipse;whiteSpace=wrap;html=1;aspect=fixed;gradientColor=none;fillColor=#0A0A0A;" parent="1" vertex="1">
          <mxGeometry x="370" y="40" width="50" height="50" as="geometry" />
        </mxCell>
        <mxCell id="T4OwEdS0RpMycMWgRKL4-4" value="&lt;span style=&quot;text-align: justify; background-color: initial;&quot;&gt;-Objeto interfaz del servicio de Cálculos.&lt;br&gt;-Objeto interfaz del servicio Menú.&lt;br&gt;-char tecla = &#39;s&#39;&lt;br&gt;- bool acceso (false)&lt;br&gt;&lt;/span&gt;" style="html=1;whiteSpace=wrap;" parent="1" vertex="1">
          <mxGeometry x="327.5" y="120" width="152.5" height="90" as="geometry" />
        </mxCell>
        <mxCell id="T4OwEdS0RpMycMWgRKL4-5" value="&lt;div style=&quot;border-color: var(--border-color);&quot;&gt;Clase Program.cs, método Main.&lt;/div&gt;&lt;div style=&quot;border-color: var(--border-color);&quot;&gt;Punto de entrada de la aplicación&lt;/div&gt;" style="shape=note;size=20;whiteSpace=wrap;html=1;" parent="1" vertex="1">
          <mxGeometry x="40" y="30" width="120" height="90" as="geometry" />
        </mxCell>
        <mxCell id="ouXxh68re1fRmb7UrkzX-20" style="edgeStyle=orthogonalEdgeStyle;rounded=0;orthogonalLoop=1;jettySize=auto;html=1;" parent="1" source="T4OwEdS0RpMycMWgRKL4-6" edge="1">
          <mxGeometry relative="1" as="geometry">
            <mxPoint x="430" y="750" as="targetPoint" />
          </mxGeometry>
        </mxCell>
        <mxCell id="T4OwEdS0RpMycMWgRKL4-6" value="&lt;div style=&quot;&quot;&gt;&lt;span style=&quot;background-color: initial;&quot;&gt;while!acceso&lt;/span&gt;&lt;/div&gt;" style="shape=umlFrame;whiteSpace=wrap;html=1;pointerEvents=0;align=center;" parent="1" vertex="1">
          <mxGeometry x="50" y="280" width="760" height="400" as="geometry" />
        </mxCell>
        <mxCell id="T4OwEdS0RpMycMWgRKL4-7" value="-Se define la variable char&lt;br&gt;-Se define el valor de bool" style="shape=note;size=20;whiteSpace=wrap;html=1;" parent="1" vertex="1">
          <mxGeometry x="620" y="145" width="150" height="65" as="geometry" />
        </mxCell>
        <mxCell id="T4OwEdS0RpMycMWgRKL4-8" value="tecla= &#39;s&#39;" style="shape=rhombus;perimeter=rhombusPerimeter;whiteSpace=wrap;html=1;align=center;" parent="1" vertex="1">
          <mxGeometry x="340" y="300" width="120" height="70" as="geometry" />
        </mxCell>
        <mxCell id="T4OwEdS0RpMycMWgRKL4-9" value="Salida del bucle while&lt;br&gt;acceso=true" style="html=1;whiteSpace=wrap;" parent="1" vertex="1">
          <mxGeometry x="340" y="410" width="110" height="50" as="geometry" />
        </mxCell>
        <mxCell id="T4OwEdS0RpMycMWgRKL4-10" value="" style="strokeWidth=2;html=1;shape=mxgraph.flowchart.annotation_1;align=left;pointerEvents=1;" parent="1" vertex="1">
          <mxGeometry x="200" y="320" width="10" height="40" as="geometry" />
        </mxCell>
        <mxCell id="T4OwEdS0RpMycMWgRKL4-11" value="&lt;b&gt;&lt;font style=&quot;font-size: 18px;&quot;&gt;if&lt;/font&gt;&lt;/b&gt;" style="text;html=1;strokeColor=none;fillColor=none;align=center;verticalAlign=middle;whiteSpace=wrap;rounded=0;" parent="1" vertex="1">
          <mxGeometry x="190" y="325" width="60" height="30" as="geometry" />
        </mxCell>
        <mxCell id="T4OwEdS0RpMycMWgRKL4-12" value="Solcitud de mes y año a partir de la llamada a los métodos &quot;pedirMes&quot; y &quot;pedirAnyo&quot; &lt;b&gt;&lt;font style=&quot;font-size: 17px;&quot;&gt;(2)&lt;/font&gt;&lt;/b&gt;" style="html=1;whiteSpace=wrap;" parent="1" vertex="1">
          <mxGeometry x="530" y="305" width="160" height="65" as="geometry" />
        </mxCell>
        <mxCell id="T4OwEdS0RpMycMWgRKL4-13" value="A partir de la selección del usuario, el valor de tecla será la condición a evaluar" style="shape=note;size=20;whiteSpace=wrap;html=1;" parent="1" vertex="1">
          <mxGeometry x="30" y="180" width="110" height="90" as="geometry" />
        </mxCell>
        <mxCell id="T4OwEdS0RpMycMWgRKL4-14" value="Calcula los días del mes en función del año y mes introducidos por el usuario, todo esto, mediante la llamada al metodo &quot;hacerCalculo&quot; &lt;b&gt;&lt;font style=&quot;font-size: 18px;&quot;&gt;(3)&lt;/font&gt;&lt;/b&gt;" style="html=1;whiteSpace=wrap;" parent="1" vertex="1">
          <mxGeometry x="545" y="410" width="145" height="100" as="geometry" />
        </mxCell>
        <mxCell id="T4OwEdS0RpMycMWgRKL4-19" value="&lt;div style=&quot;font-size: 22px;&quot;&gt;&lt;b style=&quot;&quot;&gt;&lt;font style=&quot;font-size: 22px;&quot;&gt;main (1)&lt;/font&gt;&lt;/b&gt;&lt;/div&gt;&lt;div style=&quot;font-size: 22px;&quot;&gt;&lt;b style=&quot;&quot;&gt;&lt;font style=&quot;font-size: 22px;&quot;&gt;controlador&lt;/font&gt;&lt;/b&gt;&lt;/div&gt;" style="text;html=1;strokeColor=none;fillColor=none;align=center;verticalAlign=middle;whiteSpace=wrap;rounded=0;" parent="1" vertex="1">
          <mxGeometry x="700" y="20" width="110" height="50" as="geometry" />
        </mxCell>
        <mxCell id="T4OwEdS0RpMycMWgRKL4-20" value="" style="strokeWidth=2;html=1;shape=mxgraph.flowchart.annotation_1;align=left;pointerEvents=1;" parent="1" vertex="1">
          <mxGeometry x="200" y="415" width="10" height="40" as="geometry" />
        </mxCell>
        <mxCell id="T4OwEdS0RpMycMWgRKL4-21" value="&lt;font style=&quot;font-size: 17px;&quot;&gt;&lt;b&gt;else&lt;/b&gt;&lt;/font&gt;" style="text;html=1;strokeColor=none;fillColor=none;align=center;verticalAlign=middle;whiteSpace=wrap;rounded=0;" parent="1" vertex="1">
          <mxGeometry x="200" y="425" width="60" height="30" as="geometry" />
        </mxCell>
        <mxCell id="T4OwEdS0RpMycMWgRKL4-28" value="" style="endArrow=classic;html=1;rounded=0;exitX=0.475;exitY=1;exitDx=0;exitDy=0;exitPerimeter=0;" parent="1" source="T4OwEdS0RpMycMWgRKL4-4" edge="1">
          <mxGeometry width="50" height="50" relative="1" as="geometry">
            <mxPoint x="399.44" y="220" as="sourcePoint" />
            <mxPoint x="400" y="280" as="targetPoint" />
          </mxGeometry>
        </mxCell>
        <mxCell id="T4OwEdS0RpMycMWgRKL4-31" value="" style="endArrow=classic;html=1;rounded=0;" parent="1" edge="1">
          <mxGeometry width="50" height="50" relative="1" as="geometry">
            <mxPoint x="400" y="370" as="sourcePoint" />
            <mxPoint x="399.44" y="410" as="targetPoint" />
          </mxGeometry>
        </mxCell>
        <mxCell id="T4OwEdS0RpMycMWgRKL4-32" value="" style="endArrow=classic;html=1;rounded=0;" parent="1" edge="1">
          <mxGeometry width="50" height="50" relative="1" as="geometry">
            <mxPoint x="460" y="334" as="sourcePoint" />
            <mxPoint x="530" y="334.44" as="targetPoint" />
          </mxGeometry>
        </mxCell>
        <mxCell id="T4OwEdS0RpMycMWgRKL4-37" value="" style="endArrow=classic;html=1;rounded=0;" parent="1" edge="1">
          <mxGeometry width="50" height="50" relative="1" as="geometry">
            <mxPoint x="617.5" y="370" as="sourcePoint" />
            <mxPoint x="616.94" y="410" as="targetPoint" />
          </mxGeometry>
        </mxCell>
        <mxCell id="T4OwEdS0RpMycMWgRKL4-38" value="True" style="text;html=1;strokeColor=none;fillColor=none;align=center;verticalAlign=middle;whiteSpace=wrap;rounded=0;" parent="1" vertex="1">
          <mxGeometry x="460" y="305" width="60" height="30" as="geometry" />
        </mxCell>
        <mxCell id="T4OwEdS0RpMycMWgRKL4-39" value="False" style="text;html=1;strokeColor=none;fillColor=none;align=center;verticalAlign=middle;whiteSpace=wrap;rounded=0;" parent="1" vertex="1">
          <mxGeometry x="327.5" y="370" width="60" height="30" as="geometry" />
        </mxCell>
        <mxCell id="T4OwEdS0RpMycMWgRKL4-41" value="" style="endArrow=classic;html=1;rounded=0;dashed=1;" parent="1" edge="1">
          <mxGeometry width="50" height="50" relative="1" as="geometry">
            <mxPoint x="370" y="80" as="sourcePoint" />
            <mxPoint x="160" y="80" as="targetPoint" />
          </mxGeometry>
        </mxCell>
        <mxCell id="T4OwEdS0RpMycMWgRKL4-45" value="" style="endArrow=classic;html=1;rounded=0;" parent="1" edge="1">
          <mxGeometry width="50" height="50" relative="1" as="geometry">
            <mxPoint x="400.06" y="90" as="sourcePoint" />
            <mxPoint x="400" y="120" as="targetPoint" />
          </mxGeometry>
        </mxCell>
        <mxCell id="ouXxh68re1fRmb7UrkzX-1" value="" style="endArrow=classic;html=1;rounded=0;entryX=-0.024;entryY=0.852;entryDx=0;entryDy=0;entryPerimeter=0;dashed=1;" parent="1" target="T4OwEdS0RpMycMWgRKL4-7" edge="1">
          <mxGeometry width="50" height="50" relative="1" as="geometry">
            <mxPoint x="480" y="200" as="sourcePoint" />
            <mxPoint x="595" y="205" as="targetPoint" />
          </mxGeometry>
        </mxCell>
        <mxCell id="ouXxh68re1fRmb7UrkzX-5" value="" style="edgeStyle=segmentEdgeStyle;endArrow=classic;html=1;curved=0;rounded=0;endSize=8;startSize=8;entryX=0.422;entryY=-0.012;entryDx=0;entryDy=0;entryPerimeter=0;dashed=1;exitX=1.004;exitY=0.44;exitDx=0;exitDy=0;exitPerimeter=0;" parent="1" source="T4OwEdS0RpMycMWgRKL4-13" target="T4OwEdS0RpMycMWgRKL4-6" edge="1">
          <mxGeometry width="50" height="50" relative="1" as="geometry">
            <mxPoint x="150" y="220" as="sourcePoint" />
            <mxPoint x="245" y="170" as="targetPoint" />
          </mxGeometry>
        </mxCell>
        <mxCell id="ouXxh68re1fRmb7UrkzX-6" value="Pregunta al usuario si desea hacer una nueva consulta de mes y año , la respuesta se guardará en la variable de tipo char identificada como tecla y entrará nuevamente al condicional if para evaluar si el valor de tecla introducido por el usuaruo coincide con el valor que se le ha asignado para icializarla.&amp;nbsp;" style="html=1;whiteSpace=wrap;" parent="1" vertex="1">
          <mxGeometry x="460" y="550" width="270" height="100" as="geometry" />
        </mxCell>
        <mxCell id="ouXxh68re1fRmb7UrkzX-9" value="" style="endArrow=classic;html=1;rounded=0;" parent="1" edge="1">
          <mxGeometry width="50" height="50" relative="1" as="geometry">
            <mxPoint x="617.56" y="510" as="sourcePoint" />
            <mxPoint x="617" y="550" as="targetPoint" />
          </mxGeometry>
        </mxCell>
        <mxCell id="ouXxh68re1fRmb7UrkzX-10" value="" style="verticalLabelPosition=bottom;verticalAlign=top;html=1;shape=mxgraph.flowchart.or;" parent="1" vertex="1">
          <mxGeometry x="250" y="510" width="60" height="55" as="geometry" />
        </mxCell>
        <mxCell id="ouXxh68re1fRmb7UrkzX-17" style="edgeStyle=orthogonalEdgeStyle;rounded=0;orthogonalLoop=1;jettySize=auto;html=1;entryX=0.855;entryY=0.855;entryDx=0;entryDy=0;entryPerimeter=0;" parent="1" source="ouXxh68re1fRmb7UrkzX-6" target="ouXxh68re1fRmb7UrkzX-10" edge="1">
          <mxGeometry relative="1" as="geometry">
            <Array as="points">
              <mxPoint x="430" y="562" />
              <mxPoint x="430" y="562" />
            </Array>
          </mxGeometry>
        </mxCell>
        <mxCell id="ouXxh68re1fRmb7UrkzX-18" style="edgeStyle=orthogonalEdgeStyle;rounded=0;orthogonalLoop=1;jettySize=auto;html=1;" parent="1" source="T4OwEdS0RpMycMWgRKL4-9" edge="1">
          <mxGeometry relative="1" as="geometry">
            <mxPoint x="280" y="510" as="targetPoint" />
          </mxGeometry>
        </mxCell>
        <mxCell id="ouXxh68re1fRmb7UrkzX-22" style="edgeStyle=orthogonalEdgeStyle;rounded=0;orthogonalLoop=1;jettySize=auto;html=1;dashed=1;" parent="1" source="ouXxh68re1fRmb7UrkzX-21" target="ouXxh68re1fRmb7UrkzX-23" edge="1">
          <mxGeometry relative="1" as="geometry">
            <mxPoint x="260" y="775" as="targetPoint" />
          </mxGeometry>
        </mxCell>
        <mxCell id="ouXxh68re1fRmb7UrkzX-21" value="" style="ellipse;html=1;shape=endState;fillColor=#000000;strokeColor=#ff0000;" parent="1" vertex="1">
          <mxGeometry x="402" y="750" width="56" height="50" as="geometry" />
        </mxCell>
        <mxCell id="ouXxh68re1fRmb7UrkzX-23" value="La aplicación se cierra" style="shape=note;size=20;whiteSpace=wrap;html=1;" parent="1" vertex="1">
          <mxGeometry x="170" y="752.5" width="100" height="45" as="geometry" />
        </mxCell>
      </root>
    </mxGraphModel>
  </diagram>
  <diagram id="Lou8A5XynUoTY0lZp49Y" name="Página-2">
    <mxGraphModel dx="1042" dy="535" grid="1" gridSize="10" guides="1" tooltips="1" connect="1" arrows="1" fold="1" page="1" pageScale="1" pageWidth="827" pageHeight="1169" math="0" shadow="0">
      <root>
        <mxCell id="0" />
        <mxCell id="1" parent="0" />
        <mxCell id="LOE3atnDLFRM5DaQaq_H-3" style="edgeStyle=orthogonalEdgeStyle;rounded=0;orthogonalLoop=1;jettySize=auto;html=1;entryX=0;entryY=0.5;entryDx=0;entryDy=0;" parent="1" source="LOE3atnDLFRM5DaQaq_H-1" target="LOE3atnDLFRM5DaQaq_H-2" edge="1">
          <mxGeometry relative="1" as="geometry" />
        </mxCell>
        <mxCell id="LOE3atnDLFRM5DaQaq_H-1" value="" style="ellipse;shape=doubleEllipse;whiteSpace=wrap;html=1;aspect=fixed;gradientColor=none;fillColor=#0A0A0A;" parent="1" vertex="1">
          <mxGeometry x="170" y="30" width="50" height="50" as="geometry" />
        </mxCell>
        <mxCell id="LOE3atnDLFRM5DaQaq_H-6" style="edgeStyle=orthogonalEdgeStyle;rounded=0;orthogonalLoop=1;jettySize=auto;html=1;dashed=1;" parent="1" source="LOE3atnDLFRM5DaQaq_H-2" edge="1">
          <mxGeometry relative="1" as="geometry">
            <mxPoint x="600" y="55" as="targetPoint" />
          </mxGeometry>
        </mxCell>
        <mxCell id="LOE3atnDLFRM5DaQaq_H-8" value="" style="edgeStyle=orthogonalEdgeStyle;rounded=0;orthogonalLoop=1;jettySize=auto;html=1;" parent="1" source="LOE3atnDLFRM5DaQaq_H-2" target="LOE3atnDLFRM5DaQaq_H-4" edge="1">
          <mxGeometry relative="1" as="geometry" />
        </mxCell>
        <mxCell id="LOE3atnDLFRM5DaQaq_H-2" value="Public int&amp;nbsp; pedirMes" style="html=1;whiteSpace=wrap;" parent="1" vertex="1">
          <mxGeometry x="330" y="30" width="110" height="50" as="geometry" />
        </mxCell>
        <mxCell id="LOE3atnDLFRM5DaQaq_H-10" value="" style="edgeStyle=orthogonalEdgeStyle;rounded=0;orthogonalLoop=1;jettySize=auto;html=1;" parent="1" source="LOE3atnDLFRM5DaQaq_H-4" target="LOE3atnDLFRM5DaQaq_H-9" edge="1">
          <mxGeometry relative="1" as="geometry" />
        </mxCell>
        <mxCell id="LOE3atnDLFRM5DaQaq_H-4" value="int mes" style="html=1;whiteSpace=wrap;" parent="1" vertex="1">
          <mxGeometry x="340" y="110" width="90" height="20" as="geometry" />
        </mxCell>
        <mxCell id="LOE3atnDLFRM5DaQaq_H-5" value="Método pedirMes, solicita al usuario que introduzca un mes&amp;nbsp;" style="shape=note;size=20;whiteSpace=wrap;html=1;" parent="1" vertex="1">
          <mxGeometry x="610" y="10" width="100" height="100" as="geometry" />
        </mxCell>
        <mxCell id="LOE3atnDLFRM5DaQaq_H-14" style="edgeStyle=orthogonalEdgeStyle;rounded=0;orthogonalLoop=1;jettySize=auto;html=1;" parent="1" source="LOE3atnDLFRM5DaQaq_H-9" edge="1">
          <mxGeometry relative="1" as="geometry">
            <mxPoint x="385" y="310" as="targetPoint" />
          </mxGeometry>
        </mxCell>
        <mxCell id="LOE3atnDLFRM5DaQaq_H-9" value="Muestra un mensaje por consola para solicitar un mes..&lt;br&gt;Captura el número de mes introducido por el usuario y lo guarda en la variable de mes definida anteriormente. Muestra el número de mes introducido por consola." style="html=1;whiteSpace=wrap;" parent="1" vertex="1">
          <mxGeometry x="250.5" y="180" width="269" height="90" as="geometry" />
        </mxCell>
        <mxCell id="LOE3atnDLFRM5DaQaq_H-12" style="edgeStyle=orthogonalEdgeStyle;rounded=0;orthogonalLoop=1;jettySize=auto;html=1;dashed=1;" parent="1" source="LOE3atnDLFRM5DaQaq_H-11" edge="1">
          <mxGeometry relative="1" as="geometry">
            <mxPoint x="520" y="230" as="targetPoint" />
          </mxGeometry>
        </mxCell>
        <mxCell id="LOE3atnDLFRM5DaQaq_H-11" value="A traves de Console.Writeline y Console.Readline, convirtiendo el número de mes introducido a entero" style="shape=note;size=20;whiteSpace=wrap;html=1;" parent="1" vertex="1">
          <mxGeometry x="620" y="190" width="150" height="80" as="geometry" />
        </mxCell>
        <mxCell id="f7zd0gQD834Xa2RWVU2Y-2" value="" style="edgeStyle=orthogonalEdgeStyle;rounded=0;orthogonalLoop=1;jettySize=auto;html=1;" parent="1" source="LOE3atnDLFRM5DaQaq_H-13" target="f7zd0gQD834Xa2RWVU2Y-1" edge="1">
          <mxGeometry relative="1" as="geometry" />
        </mxCell>
        <mxCell id="LOE3atnDLFRM5DaQaq_H-13" value="Public int pedirAnyo" style="html=1;whiteSpace=wrap;" parent="1" vertex="1">
          <mxGeometry x="330" y="310" width="110" height="50" as="geometry" />
        </mxCell>
        <mxCell id="LOE3atnDLFRM5DaQaq_H-22" value="" style="edgeStyle=orthogonalEdgeStyle;rounded=0;orthogonalLoop=1;jettySize=auto;html=1;" parent="1" source="LOE3atnDLFRM5DaQaq_H-15" target="LOE3atnDLFRM5DaQaq_H-21" edge="1">
          <mxGeometry relative="1" as="geometry" />
        </mxCell>
        <mxCell id="LOE3atnDLFRM5DaQaq_H-15" value="Muestra un mensaje por consola para solicitar un año.&lt;br&gt;Captura el valor de año introducido por el usuario y lo guarda en la variable de &quot;anyo&quot; definida anteriormente. Muestra el año introducido por consola." style="html=1;whiteSpace=wrap;" parent="1" vertex="1">
          <mxGeometry x="250.5" y="470" width="269" height="90" as="geometry" />
        </mxCell>
        <mxCell id="LOE3atnDLFRM5DaQaq_H-18" value="" style="edgeStyle=orthogonalEdgeStyle;rounded=0;orthogonalLoop=1;jettySize=auto;html=1;dashed=1;" parent="1" source="LOE3atnDLFRM5DaQaq_H-17" target="LOE3atnDLFRM5DaQaq_H-15" edge="1">
          <mxGeometry relative="1" as="geometry" />
        </mxCell>
        <mxCell id="LOE3atnDLFRM5DaQaq_H-17" value="A traves de Console.Writeline y Console.Readline, convirtiendo el número de año introducido a entero" style="shape=note;size=20;whiteSpace=wrap;html=1;" parent="1" vertex="1">
          <mxGeometry x="660" y="465" width="150" height="80" as="geometry" />
        </mxCell>
        <mxCell id="LOE3atnDLFRM5DaQaq_H-19" value="&lt;b&gt;&lt;font style=&quot;font-size: 17px;&quot;&gt;Servicio: MenuImplementacion (2)&lt;/font&gt;&lt;/b&gt;" style="text;html=1;strokeColor=none;fillColor=none;align=center;verticalAlign=middle;whiteSpace=wrap;rounded=0;" parent="1" vertex="1">
          <mxGeometry x="60" width="60" height="70" as="geometry" />
        </mxCell>
        <mxCell id="LOE3atnDLFRM5DaQaq_H-20" value="fin del métodoUna vez que se han guardado los valores de las variables introducidos por el usuario se implementará el flujo &lt;b&gt;&lt;font style=&quot;font-size: 19px;&quot;&gt;(3)&lt;/font&gt;&lt;/b&gt;" style="shape=note;size=20;whiteSpace=wrap;html=1;" parent="1" vertex="1">
          <mxGeometry x="620" y="600" width="170" height="110" as="geometry" />
        </mxCell>
        <mxCell id="LOE3atnDLFRM5DaQaq_H-21" value="" style="ellipse;html=1;shape=endState;fillColor=#000000;strokeColor=#ff0000;" parent="1" vertex="1">
          <mxGeometry x="360" y="665" width="50" height="45" as="geometry" />
        </mxCell>
        <mxCell id="LOE3atnDLFRM5DaQaq_H-23" style="edgeStyle=orthogonalEdgeStyle;rounded=0;orthogonalLoop=1;jettySize=auto;html=1;entryX=1.064;entryY=0.773;entryDx=0;entryDy=0;entryPerimeter=0;dashed=1;" parent="1" source="LOE3atnDLFRM5DaQaq_H-20" target="LOE3atnDLFRM5DaQaq_H-21" edge="1">
          <mxGeometry relative="1" as="geometry" />
        </mxCell>
        <mxCell id="f7zd0gQD834Xa2RWVU2Y-3" value="" style="edgeStyle=orthogonalEdgeStyle;rounded=0;orthogonalLoop=1;jettySize=auto;html=1;" parent="1" source="f7zd0gQD834Xa2RWVU2Y-1" target="LOE3atnDLFRM5DaQaq_H-15" edge="1">
          <mxGeometry relative="1" as="geometry" />
        </mxCell>
        <mxCell id="f7zd0gQD834Xa2RWVU2Y-1" value="int anyo" style="html=1;whiteSpace=wrap;" parent="1" vertex="1">
          <mxGeometry x="340" y="410" width="90" height="20" as="geometry" />
        </mxCell>
      </root>
    </mxGraphModel>
  </diagram>
  <diagram id="1PSctGA-2VQONcEvy3xD" name="Página-3">
    <mxGraphModel dx="1389" dy="713" grid="1" gridSize="10" guides="1" tooltips="1" connect="1" arrows="1" fold="1" page="1" pageScale="1" pageWidth="827" pageHeight="1169" math="0" shadow="0">
      <root>
        <mxCell id="0" />
        <mxCell id="1" parent="0" />
        <mxCell id="iLdmMPtP9ziV3u7H2Ljc-15" style="edgeStyle=orthogonalEdgeStyle;rounded=0;orthogonalLoop=1;jettySize=auto;html=1;entryX=0.5;entryY=0;entryDx=0;entryDy=0;" parent="1" source="DqwRy8rUrMRFlEXYcN-D-1" target="iLdmMPtP9ziV3u7H2Ljc-1" edge="1">
          <mxGeometry relative="1" as="geometry" />
        </mxCell>
        <mxCell id="DqwRy8rUrMRFlEXYcN-D-1" value="" style="ellipse;shape=doubleEllipse;whiteSpace=wrap;html=1;aspect=fixed;gradientColor=none;fillColor=#0A0A0A;" parent="1" vertex="1">
          <mxGeometry x="389" y="30" width="50" height="50" as="geometry" />
        </mxCell>
        <mxCell id="iLdmMPtP9ziV3u7H2Ljc-10" style="edgeStyle=orthogonalEdgeStyle;rounded=0;orthogonalLoop=1;jettySize=auto;html=1;entryX=0.5;entryY=0;entryDx=0;entryDy=0;" parent="1" source="iLdmMPtP9ziV3u7H2Ljc-1" target="iLdmMPtP9ziV3u7H2Ljc-2" edge="1">
          <mxGeometry relative="1" as="geometry" />
        </mxCell>
        <mxCell id="iLdmMPtP9ziV3u7H2Ljc-1" value="int mes;&lt;br&gt;int anyo;" style="html=1;whiteSpace=wrap;" parent="1" vertex="1">
          <mxGeometry x="369" y="110" width="90" height="40" as="geometry" />
        </mxCell>
        <mxCell id="iLdmMPtP9ziV3u7H2Ljc-11" style="edgeStyle=orthogonalEdgeStyle;rounded=0;orthogonalLoop=1;jettySize=auto;html=1;" parent="1" source="iLdmMPtP9ziV3u7H2Ljc-2" target="iLdmMPtP9ziV3u7H2Ljc-5" edge="1">
          <mxGeometry relative="1" as="geometry" />
        </mxCell>
        <mxCell id="4w7Y_1NQ0xCav2hTTFFV-1" style="edgeStyle=orthogonalEdgeStyle;rounded=0;orthogonalLoop=1;jettySize=auto;html=1;" parent="1" source="iLdmMPtP9ziV3u7H2Ljc-2" edge="1">
          <mxGeometry relative="1" as="geometry">
            <mxPoint x="580" y="245" as="targetPoint" />
          </mxGeometry>
        </mxCell>
        <mxCell id="iLdmMPtP9ziV3u7H2Ljc-2" value="anyo % 4==0&lt;br&gt;Y&lt;br&gt;anyo % 100 !=0" style="shape=rhombus;perimeter=rhombusPerimeter;whiteSpace=wrap;html=1;align=center;" parent="1" vertex="1">
          <mxGeometry x="331" y="190" width="166" height="110" as="geometry" />
        </mxCell>
        <mxCell id="iLdmMPtP9ziV3u7H2Ljc-4" style="edgeStyle=orthogonalEdgeStyle;rounded=0;orthogonalLoop=1;jettySize=auto;html=1;dashed=1;" parent="1" source="iLdmMPtP9ziV3u7H2Ljc-3" edge="1">
          <mxGeometry relative="1" as="geometry">
            <mxPoint x="390" y="65" as="targetPoint" />
          </mxGeometry>
        </mxCell>
        <mxCell id="iLdmMPtP9ziV3u7H2Ljc-3" value="Método &quot;hacerCalculo&quot; que determina si el año introducido por el usuario es un año bisiesto o no, en función de esa condición calcula el número de días del mes introducido" style="shape=note;size=20;whiteSpace=wrap;html=1;" parent="1" vertex="1">
          <mxGeometry x="30" y="10" width="200" height="110" as="geometry" />
        </mxCell>
        <mxCell id="iLdmMPtP9ziV3u7H2Ljc-12" style="edgeStyle=orthogonalEdgeStyle;rounded=0;orthogonalLoop=1;jettySize=auto;html=1;entryX=0.5;entryY=0;entryDx=0;entryDy=0;" parent="1" source="iLdmMPtP9ziV3u7H2Ljc-5" target="iLdmMPtP9ziV3u7H2Ljc-6" edge="1">
          <mxGeometry relative="1" as="geometry" />
        </mxCell>
        <mxCell id="4w7Y_1NQ0xCav2hTTFFV-2" style="edgeStyle=orthogonalEdgeStyle;rounded=0;orthogonalLoop=1;jettySize=auto;html=1;" parent="1" source="iLdmMPtP9ziV3u7H2Ljc-5" edge="1">
          <mxGeometry relative="1" as="geometry">
            <mxPoint x="580" y="405" as="targetPoint" />
          </mxGeometry>
        </mxCell>
        <mxCell id="iLdmMPtP9ziV3u7H2Ljc-5" value="anyo % 400 =0" style="shape=rhombus;perimeter=rhombusPerimeter;whiteSpace=wrap;html=1;align=center;" parent="1" vertex="1">
          <mxGeometry x="331" y="350" width="166" height="110" as="geometry" />
        </mxCell>
        <mxCell id="iLdmMPtP9ziV3u7H2Ljc-13" style="edgeStyle=orthogonalEdgeStyle;rounded=0;orthogonalLoop=1;jettySize=auto;html=1;entryX=0.5;entryY=0;entryDx=0;entryDy=0;" parent="1" source="iLdmMPtP9ziV3u7H2Ljc-6" target="iLdmMPtP9ziV3u7H2Ljc-7" edge="1">
          <mxGeometry relative="1" as="geometry" />
        </mxCell>
        <mxCell id="4w7Y_1NQ0xCav2hTTFFV-15" style="edgeStyle=orthogonalEdgeStyle;rounded=0;orthogonalLoop=1;jettySize=auto;html=1;entryX=0;entryY=0.5;entryDx=0;entryDy=0;" parent="1" source="iLdmMPtP9ziV3u7H2Ljc-6" target="4w7Y_1NQ0xCav2hTTFFV-13" edge="1">
          <mxGeometry relative="1" as="geometry" />
        </mxCell>
        <mxCell id="iLdmMPtP9ziV3u7H2Ljc-6" value="&lt;b&gt;&lt;br&gt;mes&lt;/b&gt; = 1 || 3 || 5 || 7 || &lt;br&gt;8 || 10&lt;br&gt;|| 12" style="shape=rhombus;perimeter=rhombusPerimeter;whiteSpace=wrap;html=1;align=center;" parent="1" vertex="1">
          <mxGeometry x="331" y="520" width="166" height="110" as="geometry" />
        </mxCell>
        <mxCell id="iLdmMPtP9ziV3u7H2Ljc-14" style="edgeStyle=orthogonalEdgeStyle;rounded=0;orthogonalLoop=1;jettySize=auto;html=1;entryX=0.5;entryY=0;entryDx=0;entryDy=0;" parent="1" source="iLdmMPtP9ziV3u7H2Ljc-7" target="iLdmMPtP9ziV3u7H2Ljc-9" edge="1">
          <mxGeometry relative="1" as="geometry" />
        </mxCell>
        <mxCell id="iLdmMPtP9ziV3u7H2Ljc-7" value="&lt;b&gt;mes&lt;/b&gt; = 4 || 6 || 9 || 11" style="shape=rhombus;perimeter=rhombusPerimeter;whiteSpace=wrap;html=1;align=center;" parent="1" vertex="1">
          <mxGeometry x="331" y="700" width="166" height="110" as="geometry" />
        </mxCell>
        <mxCell id="4w7Y_1NQ0xCav2hTTFFV-45" style="edgeStyle=orthogonalEdgeStyle;rounded=0;orthogonalLoop=1;jettySize=auto;html=1;" parent="1" source="iLdmMPtP9ziV3u7H2Ljc-9" edge="1">
          <mxGeometry relative="1" as="geometry">
            <mxPoint x="970" y="880" as="targetPoint" />
          </mxGeometry>
        </mxCell>
        <mxCell id="iLdmMPtP9ziV3u7H2Ljc-9" value="El mes restante que es el que corresponde al número 2, tiene 29 días y es un año bisiesto" style="html=1;whiteSpace=wrap;" parent="1" vertex="1">
          <mxGeometry x="333" y="850" width="161" height="60" as="geometry" />
        </mxCell>
        <mxCell id="iLdmMPtP9ziV3u7H2Ljc-16" value="&lt;b&gt;&lt;font style=&quot;font-size: 13px;&quot;&gt;[Sí es bisiesto]&lt;/font&gt;&lt;/b&gt;" style="text;html=1;strokeColor=none;fillColor=none;align=center;verticalAlign=middle;whiteSpace=wrap;rounded=0;" parent="1" vertex="1">
          <mxGeometry x="280" y="310" width="111" height="30" as="geometry" />
        </mxCell>
        <mxCell id="iLdmMPtP9ziV3u7H2Ljc-17" value="&lt;b&gt;&lt;font style=&quot;font-size: 13px;&quot;&gt;[Sí es bisiesto]&lt;/font&gt;&lt;/b&gt;" style="text;html=1;strokeColor=none;fillColor=none;align=center;verticalAlign=middle;whiteSpace=wrap;rounded=0;" parent="1" vertex="1">
          <mxGeometry x="290" y="470" width="111" height="30" as="geometry" />
        </mxCell>
        <mxCell id="iLdmMPtP9ziV3u7H2Ljc-20" value="True" style="text;html=1;strokeColor=none;fillColor=none;align=center;verticalAlign=middle;whiteSpace=wrap;rounded=0;" parent="1" vertex="1">
          <mxGeometry x="354" y="290" width="60" height="30" as="geometry" />
        </mxCell>
        <mxCell id="iLdmMPtP9ziV3u7H2Ljc-21" value="True" style="text;html=1;strokeColor=none;fillColor=none;align=center;verticalAlign=middle;whiteSpace=wrap;rounded=0;" parent="1" vertex="1">
          <mxGeometry x="354" y="450" width="60" height="30" as="geometry" />
        </mxCell>
        <mxCell id="iLdmMPtP9ziV3u7H2Ljc-22" value="False" style="text;html=1;strokeColor=none;fillColor=none;align=center;verticalAlign=middle;whiteSpace=wrap;rounded=0;" parent="1" vertex="1">
          <mxGeometry x="354" y="640" width="60" height="30" as="geometry" />
        </mxCell>
        <mxCell id="iLdmMPtP9ziV3u7H2Ljc-23" value="False" style="text;html=1;strokeColor=none;fillColor=none;align=center;verticalAlign=middle;whiteSpace=wrap;rounded=0;" parent="1" vertex="1">
          <mxGeometry x="341" y="810" width="60" height="30" as="geometry" />
        </mxCell>
        <mxCell id="iLdmMPtP9ziV3u7H2Ljc-24" value="Condiciones a evaluar" style="shape=note;size=20;whiteSpace=wrap;html=1;" parent="1" vertex="1">
          <mxGeometry x="30" y="180" width="100" height="50" as="geometry" />
        </mxCell>
        <mxCell id="iLdmMPtP9ziV3u7H2Ljc-26" value="&lt;b&gt;&lt;font style=&quot;font-size: 20px;&quot;&gt;if&lt;/font&gt;&lt;/b&gt;" style="text;html=1;strokeColor=none;fillColor=none;align=center;verticalAlign=middle;whiteSpace=wrap;rounded=0;" parent="1" vertex="1">
          <mxGeometry x="60" y="360" width="60" height="30" as="geometry" />
        </mxCell>
        <mxCell id="iLdmMPtP9ziV3u7H2Ljc-27" style="edgeStyle=orthogonalEdgeStyle;rounded=0;orthogonalLoop=1;jettySize=auto;html=1;entryX=0.341;entryY=0.137;entryDx=0;entryDy=0;entryPerimeter=0;dashed=1;" parent="1" source="iLdmMPtP9ziV3u7H2Ljc-24" target="iLdmMPtP9ziV3u7H2Ljc-2" edge="1">
          <mxGeometry relative="1" as="geometry" />
        </mxCell>
        <mxCell id="iLdmMPtP9ziV3u7H2Ljc-28" value="" style="strokeWidth=2;html=1;shape=mxgraph.flowchart.annotation_2;align=left;labelPosition=right;pointerEvents=1;" parent="1" vertex="1">
          <mxGeometry x="130" y="235" width="50" height="280" as="geometry" />
        </mxCell>
        <mxCell id="iLdmMPtP9ziV3u7H2Ljc-33" value="" style="strokeWidth=2;html=1;shape=mxgraph.flowchart.annotation_2;align=left;labelPosition=right;pointerEvents=1;" parent="1" vertex="1">
          <mxGeometry x="290" y="515" width="50" height="100" as="geometry" />
        </mxCell>
        <mxCell id="iLdmMPtP9ziV3u7H2Ljc-34" value="&lt;b&gt;&lt;font style=&quot;font-size: 20px;&quot;&gt;if&lt;/font&gt;&lt;/b&gt;" style="text;html=1;strokeColor=none;fillColor=none;align=center;verticalAlign=middle;whiteSpace=wrap;rounded=0;" parent="1" vertex="1">
          <mxGeometry x="230" y="550" width="60" height="30" as="geometry" />
        </mxCell>
        <mxCell id="iLdmMPtP9ziV3u7H2Ljc-35" value="" style="strokeWidth=2;html=1;shape=mxgraph.flowchart.annotation_2;align=left;labelPosition=right;pointerEvents=1;" parent="1" vertex="1">
          <mxGeometry x="291" y="700" width="50" height="100" as="geometry" />
        </mxCell>
        <mxCell id="iLdmMPtP9ziV3u7H2Ljc-36" value="&lt;b&gt;&lt;font style=&quot;font-size: 20px;&quot;&gt;else if&lt;/font&gt;&lt;/b&gt;" style="text;html=1;strokeColor=none;fillColor=none;align=center;verticalAlign=middle;whiteSpace=wrap;rounded=0;" parent="1" vertex="1">
          <mxGeometry x="220" y="730" width="60" height="30" as="geometry" />
        </mxCell>
        <mxCell id="iLdmMPtP9ziV3u7H2Ljc-37" value="" style="strokeWidth=2;html=1;shape=mxgraph.flowchart.annotation_2;align=left;labelPosition=right;pointerEvents=1;" parent="1" vertex="1">
          <mxGeometry x="290" y="830" width="50" height="100" as="geometry" />
        </mxCell>
        <mxCell id="iLdmMPtP9ziV3u7H2Ljc-38" value="&lt;span style=&quot;font-size: 20px;&quot;&gt;&lt;b&gt;else&lt;/b&gt;&lt;/span&gt;" style="text;html=1;strokeColor=none;fillColor=none;align=center;verticalAlign=middle;whiteSpace=wrap;rounded=0;" parent="1" vertex="1">
          <mxGeometry x="231" y="865" width="60" height="30" as="geometry" />
        </mxCell>
        <mxCell id="iLdmMPtP9ziV3u7H2Ljc-40" style="edgeStyle=orthogonalEdgeStyle;rounded=0;orthogonalLoop=1;jettySize=auto;html=1;entryX=0;entryY=0.5;entryDx=0;entryDy=0;dashed=1;" parent="1" source="iLdmMPtP9ziV3u7H2Ljc-39" target="iLdmMPtP9ziV3u7H2Ljc-26" edge="1">
          <mxGeometry relative="1" as="geometry" />
        </mxCell>
        <mxCell id="iLdmMPtP9ziV3u7H2Ljc-39" value="Condicional para determinar si es año bisiesto o no" style="shape=note;size=20;whiteSpace=wrap;html=1;" parent="1" vertex="1">
          <mxGeometry x="10" y="280" width="100" height="50" as="geometry" />
        </mxCell>
        <mxCell id="iLdmMPtP9ziV3u7H2Ljc-41" value="Condicional para evaluar si el mes introducido coincide con alguno de los valores asignados correspondientes con el número de mes." style="shape=note;size=20;whiteSpace=wrap;html=1;" parent="1" vertex="1">
          <mxGeometry x="20" y="660" width="140" height="100" as="geometry" />
        </mxCell>
        <mxCell id="iLdmMPtP9ziV3u7H2Ljc-42" value="" style="strokeWidth=2;html=1;shape=mxgraph.flowchart.annotation_2;align=left;labelPosition=right;pointerEvents=1;dashed=1;" parent="1" vertex="1">
          <mxGeometry x="160" y="560" width="50" height="320" as="geometry" />
        </mxCell>
        <mxCell id="4w7Y_1NQ0xCav2hTTFFV-3" value="False" style="text;html=1;strokeColor=none;fillColor=none;align=center;verticalAlign=middle;whiteSpace=wrap;rounded=0;" parent="1" vertex="1">
          <mxGeometry x="494" y="210" width="60" height="30" as="geometry" />
        </mxCell>
        <mxCell id="4w7Y_1NQ0xCav2hTTFFV-6" value="False" style="text;html=1;strokeColor=none;fillColor=none;align=center;verticalAlign=middle;whiteSpace=wrap;rounded=0;" parent="1" vertex="1">
          <mxGeometry x="494" y="380" width="60" height="30" as="geometry" />
        </mxCell>
        <mxCell id="4w7Y_1NQ0xCav2hTTFFV-7" value="" style="strokeWidth=2;html=1;shape=mxgraph.flowchart.annotation_2;align=left;labelPosition=right;pointerEvents=1;rotation=-180;" parent="1" vertex="1">
          <mxGeometry x="600" y="240" width="50" height="165" as="geometry" />
        </mxCell>
        <mxCell id="WM3y8JHOKCkTfn-5IhUj-1" value="" style="edgeStyle=orthogonalEdgeStyle;rounded=0;orthogonalLoop=1;jettySize=auto;html=1;" edge="1" parent="1" source="4w7Y_1NQ0xCav2hTTFFV-8" target="4w7Y_1NQ0xCav2hTTFFV-7">
          <mxGeometry relative="1" as="geometry" />
        </mxCell>
        <mxCell id="WM3y8JHOKCkTfn-5IhUj-4" style="edgeStyle=orthogonalEdgeStyle;rounded=0;orthogonalLoop=1;jettySize=auto;html=1;" edge="1" parent="1" source="4w7Y_1NQ0xCav2hTTFFV-8">
          <mxGeometry relative="1" as="geometry">
            <mxPoint x="970" y="260" as="targetPoint" />
            <Array as="points">
              <mxPoint x="680" y="160" />
              <mxPoint x="970" y="160" />
            </Array>
          </mxGeometry>
        </mxCell>
        <mxCell id="4w7Y_1NQ0xCav2hTTFFV-8" value="&lt;b&gt;&lt;font style=&quot;font-size: 14px;&quot;&gt;[No es bisiesto]&lt;/font&gt;&lt;/b&gt;" style="text;html=1;strokeColor=none;fillColor=none;align=center;verticalAlign=middle;whiteSpace=wrap;rounded=0;" parent="1" vertex="1">
          <mxGeometry x="650" y="300" width="60" height="30" as="geometry" />
        </mxCell>
        <mxCell id="4w7Y_1NQ0xCav2hTTFFV-9" value="&lt;b&gt;&lt;font style=&quot;font-size: 16px;&quot;&gt;else if&lt;/font&gt;&lt;/b&gt;" style="text;html=1;align=center;verticalAlign=middle;resizable=0;points=[];autosize=1;strokeColor=none;fillColor=none;" parent="1" vertex="1">
          <mxGeometry x="770" y="307.5" width="70" height="30" as="geometry" />
        </mxCell>
        <mxCell id="4w7Y_1NQ0xCav2hTTFFV-23" style="edgeStyle=orthogonalEdgeStyle;rounded=0;orthogonalLoop=1;jettySize=auto;html=1;entryX=0.5;entryY=0;entryDx=0;entryDy=0;" parent="1" source="4w7Y_1NQ0xCav2hTTFFV-10" target="4w7Y_1NQ0xCav2hTTFFV-11" edge="1">
          <mxGeometry relative="1" as="geometry" />
        </mxCell>
        <mxCell id="4w7Y_1NQ0xCav2hTTFFV-36" style="edgeStyle=orthogonalEdgeStyle;rounded=0;orthogonalLoop=1;jettySize=auto;html=1;" parent="1" source="4w7Y_1NQ0xCav2hTTFFV-10" edge="1">
          <mxGeometry relative="1" as="geometry">
            <mxPoint x="1130" y="322.5" as="targetPoint" />
          </mxGeometry>
        </mxCell>
        <mxCell id="4w7Y_1NQ0xCav2hTTFFV-10" value="&lt;b&gt;&lt;br&gt;mes&lt;/b&gt; = 1 || 3 || 5 || 7 || &lt;br&gt;8 || 10&lt;br&gt;|| 12" style="shape=rhombus;perimeter=rhombusPerimeter;whiteSpace=wrap;html=1;align=center;" parent="1" vertex="1">
          <mxGeometry x="890" y="267.5" width="166" height="110" as="geometry" />
        </mxCell>
        <mxCell id="4w7Y_1NQ0xCav2hTTFFV-24" style="edgeStyle=orthogonalEdgeStyle;rounded=0;orthogonalLoop=1;jettySize=auto;html=1;" parent="1" source="4w7Y_1NQ0xCav2hTTFFV-11" edge="1">
          <mxGeometry relative="1" as="geometry">
            <mxPoint x="973.0000000000002" y="600" as="targetPoint" />
          </mxGeometry>
        </mxCell>
        <mxCell id="4w7Y_1NQ0xCav2hTTFFV-37" style="edgeStyle=orthogonalEdgeStyle;rounded=0;orthogonalLoop=1;jettySize=auto;html=1;entryX=0;entryY=0.5;entryDx=0;entryDy=0;" parent="1" source="4w7Y_1NQ0xCav2hTTFFV-11" target="4w7Y_1NQ0xCav2hTTFFV-35" edge="1">
          <mxGeometry relative="1" as="geometry" />
        </mxCell>
        <mxCell id="4w7Y_1NQ0xCav2hTTFFV-11" value="&lt;b&gt;mes&lt;/b&gt; = 4 || 6 || 9 || 11" style="shape=rhombus;perimeter=rhombusPerimeter;whiteSpace=wrap;html=1;align=center;" parent="1" vertex="1">
          <mxGeometry x="890" y="440" width="166" height="110" as="geometry" />
        </mxCell>
        <mxCell id="4w7Y_1NQ0xCav2hTTFFV-47" style="edgeStyle=orthogonalEdgeStyle;rounded=0;orthogonalLoop=1;jettySize=auto;html=1;" parent="1" source="4w7Y_1NQ0xCav2hTTFFV-12" edge="1">
          <mxGeometry relative="1" as="geometry">
            <mxPoint x="975.5000000000002" y="860" as="targetPoint" />
          </mxGeometry>
        </mxCell>
        <mxCell id="4w7Y_1NQ0xCav2hTTFFV-12" value="El mes restante que es el que corresponde al número 2, tiene 28 días y NO es un año bisiesto" style="html=1;whiteSpace=wrap;" parent="1" vertex="1">
          <mxGeometry x="895" y="600" width="161" height="60" as="geometry" />
        </mxCell>
        <mxCell id="4w7Y_1NQ0xCav2hTTFFV-13" value="Se imprime por pantalla el mensaje &quot;El mes introducido tiene 31 días&quot;" style="html=1;whiteSpace=wrap;" parent="1" vertex="1">
          <mxGeometry x="590" y="545" width="161" height="60" as="geometry" />
        </mxCell>
        <mxCell id="4w7Y_1NQ0xCav2hTTFFV-14" value="Se imprime por pantalla el mensaje : &quot;El me sintroducido tiene 30 días&quot;" style="html=1;whiteSpace=wrap;" parent="1" vertex="1">
          <mxGeometry x="590" y="730" width="161" height="60" as="geometry" />
        </mxCell>
        <mxCell id="4w7Y_1NQ0xCav2hTTFFV-16" style="edgeStyle=orthogonalEdgeStyle;rounded=0;orthogonalLoop=1;jettySize=auto;html=1;entryX=-0.024;entryY=0.403;entryDx=0;entryDy=0;entryPerimeter=0;" parent="1" source="iLdmMPtP9ziV3u7H2Ljc-7" target="4w7Y_1NQ0xCav2hTTFFV-14" edge="1">
          <mxGeometry relative="1" as="geometry" />
        </mxCell>
        <mxCell id="4w7Y_1NQ0xCav2hTTFFV-17" value="True" style="text;html=1;strokeColor=none;fillColor=none;align=center;verticalAlign=middle;whiteSpace=wrap;rounded=0;" parent="1" vertex="1">
          <mxGeometry x="510" y="545" width="60" height="30" as="geometry" />
        </mxCell>
        <mxCell id="4w7Y_1NQ0xCav2hTTFFV-18" value="True" style="text;html=1;strokeColor=none;fillColor=none;align=center;verticalAlign=middle;whiteSpace=wrap;rounded=0;" parent="1" vertex="1">
          <mxGeometry x="510" y="720" width="60" height="30" as="geometry" />
        </mxCell>
        <mxCell id="4w7Y_1NQ0xCav2hTTFFV-20" value="" style="edgeStyle=orthogonalEdgeStyle;rounded=0;orthogonalLoop=1;jettySize=auto;html=1;dashed=1;" parent="1" source="4w7Y_1NQ0xCav2hTTFFV-19" target="4w7Y_1NQ0xCav2hTTFFV-13" edge="1">
          <mxGeometry relative="1" as="geometry">
            <Array as="points">
              <mxPoint x="650" y="530" />
              <mxPoint x="650" y="530" />
            </Array>
          </mxGeometry>
        </mxCell>
        <mxCell id="4w7Y_1NQ0xCav2hTTFFV-19" value="Sí se cumple la condición" style="shape=note;size=20;whiteSpace=wrap;html=1;" parent="1" vertex="1">
          <mxGeometry x="600" y="450" width="100" height="60" as="geometry" />
        </mxCell>
        <mxCell id="4w7Y_1NQ0xCav2hTTFFV-22" value="" style="edgeStyle=orthogonalEdgeStyle;rounded=0;orthogonalLoop=1;jettySize=auto;html=1;dashed=1;" parent="1" source="4w7Y_1NQ0xCav2hTTFFV-21" target="4w7Y_1NQ0xCav2hTTFFV-14" edge="1">
          <mxGeometry relative="1" as="geometry" />
        </mxCell>
        <mxCell id="4w7Y_1NQ0xCav2hTTFFV-21" value="Sí se cumple la condición" style="shape=note;size=20;whiteSpace=wrap;html=1;" parent="1" vertex="1">
          <mxGeometry x="620.5" y="640" width="100" height="60" as="geometry" />
        </mxCell>
        <mxCell id="4w7Y_1NQ0xCav2hTTFFV-26" value="" style="strokeWidth=2;html=1;shape=mxgraph.flowchart.annotation_2;align=left;labelPosition=right;pointerEvents=1;" parent="1" vertex="1">
          <mxGeometry x="845" y="275" width="50" height="100" as="geometry" />
        </mxCell>
        <mxCell id="4w7Y_1NQ0xCav2hTTFFV-27" value="" style="strokeWidth=2;html=1;shape=mxgraph.flowchart.annotation_2;align=left;labelPosition=right;pointerEvents=1;" parent="1" vertex="1">
          <mxGeometry x="840" y="445" width="50" height="100" as="geometry" />
        </mxCell>
        <mxCell id="4w7Y_1NQ0xCav2hTTFFV-28" value="&lt;b&gt;&lt;font style=&quot;font-size: 16px;&quot;&gt;else if&lt;/font&gt;&lt;/b&gt;" style="text;html=1;align=center;verticalAlign=middle;resizable=0;points=[];autosize=1;strokeColor=none;fillColor=none;" parent="1" vertex="1">
          <mxGeometry x="770" y="480" width="70" height="30" as="geometry" />
        </mxCell>
        <mxCell id="4w7Y_1NQ0xCav2hTTFFV-29" value="" style="strokeWidth=2;html=1;shape=mxgraph.flowchart.annotation_2;align=left;labelPosition=right;pointerEvents=1;" parent="1" vertex="1">
          <mxGeometry x="845" y="585" width="50" height="100" as="geometry" />
        </mxCell>
        <mxCell id="4w7Y_1NQ0xCav2hTTFFV-30" value="&lt;b&gt;&lt;font style=&quot;font-size: 16px;&quot;&gt;else&amp;nbsp;&lt;/font&gt;&lt;/b&gt;" style="text;html=1;align=center;verticalAlign=middle;resizable=0;points=[];autosize=1;strokeColor=none;fillColor=none;" parent="1" vertex="1">
          <mxGeometry x="775" y="620" width="60" height="30" as="geometry" />
        </mxCell>
        <mxCell id="4w7Y_1NQ0xCav2hTTFFV-31" value="False" style="text;html=1;strokeColor=none;fillColor=none;align=center;verticalAlign=middle;whiteSpace=wrap;rounded=0;" parent="1" vertex="1">
          <mxGeometry x="980" y="390" width="60" height="30" as="geometry" />
        </mxCell>
        <mxCell id="4w7Y_1NQ0xCav2hTTFFV-32" value="False" style="text;html=1;strokeColor=none;fillColor=none;align=center;verticalAlign=middle;whiteSpace=wrap;rounded=0;" parent="1" vertex="1">
          <mxGeometry x="990" y="560" width="60" height="30" as="geometry" />
        </mxCell>
        <mxCell id="4w7Y_1NQ0xCav2hTTFFV-34" value="Se imprime por pantalla el mensaje &quot;El mes introducido tiene 31 días&quot;" style="html=1;whiteSpace=wrap;" parent="1" vertex="1">
          <mxGeometry x="1130" y="290" width="161" height="60" as="geometry" />
        </mxCell>
        <mxCell id="4w7Y_1NQ0xCav2hTTFFV-35" value="Se imprime por pantalla el mensaje : &quot;El me sintroducido tiene 30 días&quot;" style="html=1;whiteSpace=wrap;" parent="1" vertex="1">
          <mxGeometry x="1150" y="465" width="161" height="60" as="geometry" />
        </mxCell>
        <mxCell id="4w7Y_1NQ0xCav2hTTFFV-38" value="True" style="text;html=1;strokeColor=none;fillColor=none;align=center;verticalAlign=middle;whiteSpace=wrap;rounded=0;" parent="1" vertex="1">
          <mxGeometry x="1056" y="290" width="60" height="30" as="geometry" />
        </mxCell>
        <mxCell id="4w7Y_1NQ0xCav2hTTFFV-39" value="True" style="text;html=1;strokeColor=none;fillColor=none;align=center;verticalAlign=middle;whiteSpace=wrap;rounded=0;" parent="1" vertex="1">
          <mxGeometry x="1070" y="465" width="60" height="30" as="geometry" />
        </mxCell>
        <mxCell id="4w7Y_1NQ0xCav2hTTFFV-42" style="edgeStyle=orthogonalEdgeStyle;rounded=0;orthogonalLoop=1;jettySize=auto;html=1;entryX=0.5;entryY=0;entryDx=0;entryDy=0;dashed=1;" parent="1" source="4w7Y_1NQ0xCav2hTTFFV-40" target="4w7Y_1NQ0xCav2hTTFFV-34" edge="1">
          <mxGeometry relative="1" as="geometry" />
        </mxCell>
        <mxCell id="4w7Y_1NQ0xCav2hTTFFV-40" value="Sí se cumple la condición" style="shape=note;size=20;whiteSpace=wrap;html=1;" parent="1" vertex="1">
          <mxGeometry x="1160.5" y="170" width="100" height="60" as="geometry" />
        </mxCell>
        <mxCell id="4w7Y_1NQ0xCav2hTTFFV-43" value="" style="edgeStyle=orthogonalEdgeStyle;rounded=0;orthogonalLoop=1;jettySize=auto;html=1;dashed=1;" parent="1" source="4w7Y_1NQ0xCav2hTTFFV-41" target="4w7Y_1NQ0xCav2hTTFFV-35" edge="1">
          <mxGeometry relative="1" as="geometry">
            <Array as="points">
              <mxPoint x="1210" y="470" />
              <mxPoint x="1210" y="470" />
            </Array>
          </mxGeometry>
        </mxCell>
        <mxCell id="4w7Y_1NQ0xCav2hTTFFV-41" value="Sí se cumple la condición" style="shape=note;size=20;whiteSpace=wrap;html=1;" parent="1" vertex="1">
          <mxGeometry x="1160.5" y="375" width="100" height="60" as="geometry" />
        </mxCell>
        <mxCell id="4w7Y_1NQ0xCav2hTTFFV-44" value="" style="ellipse;html=1;shape=endState;fillColor=#000000;strokeColor=#ff0000;" parent="1" vertex="1">
          <mxGeometry x="970" y="865" width="40" height="40" as="geometry" />
        </mxCell>
        <mxCell id="m98hkY2RMuJkEpEsldUN-2" value="&lt;div style=&quot;&quot;&gt;&lt;b style=&quot;background-color: initial;&quot;&gt;&lt;font style=&quot;font-size: 20px;&quot;&gt;Servicio: Calculo Implementación (3)&lt;/font&gt;&lt;/b&gt;&lt;/div&gt;" style="text;html=1;strokeColor=none;fillColor=none;align=center;verticalAlign=middle;whiteSpace=wrap;rounded=0;" parent="1" vertex="1">
          <mxGeometry x="560" y="70" width="60" height="30" as="geometry" />
        </mxCell>
      </root>
    </mxGraphModel>
  </diagram>
</mxfile>
